<?xml version="1.0" encoding="UTF-8" standalone="no"?><!DOCTYPE svg PUBLIC "-//W3C//DTD SVG 1.1//EN" "http://www.w3.org/Graphics/SVG/1.1/DTD/svg11.dtd"><svg width="100%" height="100%" viewBox="0 0 240 93" version="1.1" xmlns="http://www.w3.org/2000/svg" xmlns:xlink="http://www.w3.org/1999/xlink" xml:space="preserve" xmlns:serif="http://www.serif.com/" style="fill-rule:evenodd;clip-rule:evenodd;stroke-miterlimit:2;"><path d="M21.044,30.265c1.939,-2.034 2.979,-4.445 3.026,-7.283c0.094,-2.98 -0.898,-5.533 -3.026,-7.755c-2.081,-2.221 -4.588,-3.262 -7.566,-3.121c-2.791,0.142 -5.109,1.277 -7.047,3.405c-1.939,2.127 -2.885,4.588 -2.837,7.425c0.046,2.884 1.087,5.295 3.12,7.329c2.035,2.034 4.446,3.027 7.282,3.027c2.791,-0 5.109,-0.993 7.048,-3.027Zm6.668,4.871c-0,3.405 -1.419,6.242 -4.21,8.464c-2.79,2.223 -5.958,3.311 -9.552,3.17c-3.216,-0.143 -6.006,-1.089 -8.323,-2.933c-2.222,-1.75 -3.689,-4.02 -4.446,-6.762l3.5,0c0.52,1.844 1.75,3.451 3.594,4.776c1.844,1.371 3.877,2.034 6.101,2.034c2.648,-0.048 4.918,-0.946 6.857,-2.79c1.939,-1.798 2.931,-3.972 2.931,-6.48l-0,-2.553c-2.648,3.026 -5.959,4.635 -9.93,4.776c-3.878,0.142 -7.235,-1.229 -10.025,-4.018c-2.791,-2.839 -4.209,-6.244 -4.209,-10.168c-0,-3.783 1.275,-7.047 3.877,-9.79c2.602,-2.742 5.816,-4.16 9.553,-4.303c3.877,-0.094 7.234,1.278 10.072,4.115c2.885,2.79 4.256,6.147 4.21,10.025l-0,12.437Z" style="fill:#83c557;fill-rule:nonzero;"/><path d="M35.785,36.414l-3.783,-0l0,-26.957l3.357,0l0,3.832c0.758,-1.467 1.891,-2.554 3.358,-3.357c1.371,-0.71 2.742,-1.042 4.162,-0.995l-0,3.594c-1.655,0.048 -3.027,0.521 -4.068,1.373c-1.041,0.852 -1.75,1.607 -2.128,2.222c-0.615,1.04 -0.898,2.412 -0.898,4.162l0,16.126Z" style="fill:#83c557;fill-rule:nonzero;"/><path d="M67.344,20.854c-0.521,-2.505 -1.702,-4.54 -3.546,-6.098c-1.844,-1.562 -4.068,-2.365 -6.668,-2.414c-2.601,-0.046 -4.871,0.757 -6.81,2.319c-1.939,1.558 -3.12,3.64 -3.64,6.193l20.664,0Zm2.885,6.716c-0.993,2.885 -2.696,5.202 -5.107,6.904c-2.413,1.703 -5.061,2.555 -7.992,2.601c-3.688,0.048 -6.951,-1.278 -9.789,-4.02c-2.837,-2.79 -4.304,-6.053 -4.35,-9.882c-0.095,-4.02 1.324,-7.52 4.255,-10.404c2.979,-2.932 6.431,-4.304 10.451,-4.067c3.594,0.235 6.716,1.702 9.364,4.444c2.553,2.696 3.831,5.723 3.831,9.081l-0,1.938l-24.212,0c0.283,2.696 1.418,4.964 3.451,6.714c2.033,1.75 4.398,2.65 7.14,2.601c4.257,-0.046 7.283,-2.033 9.127,-5.91l3.831,0Z" style="fill:#83c557;fill-rule:nonzero;"/><path d="M97.518,20.854c-0.52,-2.505 -1.701,-4.54 -3.546,-6.098c-1.844,-1.562 -4.066,-2.365 -6.668,-2.414c-2.601,-0.046 -4.869,0.757 -6.81,2.319c-1.939,1.558 -3.12,3.64 -3.64,6.193l20.664,0Zm2.885,6.716c-0.992,2.885 -2.694,5.202 -5.107,6.904c-2.411,1.703 -5.06,2.555 -7.992,2.601c-3.688,0.048 -6.951,-1.278 -9.789,-4.02c-2.837,-2.79 -4.303,-6.053 -4.35,-9.882c-0.094,-4.02 1.324,-7.52 4.255,-10.404c2.98,-2.932 6.433,-4.304 10.451,-4.067c3.594,0.235 6.716,1.702 9.364,4.444c2.554,2.696 3.831,5.723 3.831,9.081l0,1.938l-24.212,0c0.283,2.696 1.418,4.964 3.451,6.714c2.033,1.75 4.398,2.65 7.142,2.601c4.255,-0.046 7.283,-2.033 9.127,-5.91l3.829,0Z" style="fill:#83c557;fill-rule:nonzero;"/><path d="M127.126,36.414l-3.642,-0l-0,-15.748c-0,-2.271 -0.851,-4.209 -2.506,-5.865c-1.655,-1.655 -3.547,-2.459 -5.769,-2.459c-2.223,0 -4.209,0.804 -5.865,2.459c-1.655,1.656 -2.459,3.594 -2.459,5.865l0,15.748l-3.64,-0l0,-15.371c0,-3.499 1.135,-6.382 3.404,-8.701c2.27,-2.316 5.108,-3.499 8.56,-3.499c3.405,-0 6.242,1.183 8.512,3.499c2.27,2.319 3.405,5.202 3.405,8.701l-0,15.371Z" style="fill:#83c557;fill-rule:nonzero;"/><path d="M155.788,26.482l-0,-21.233l-13.951,21.233l13.951,-0Zm3.782,9.979l-3.782,-0l-0,-6.669l-18.254,0l-0,-3.31l17.498,-26.339l4.491,-0l0,26.339l3.263,-0l0,3.31l-3.216,0l-0,6.669Z" style="fill:#16639f;fill-rule:nonzero;"/><path d="M196.651,36.414l-3.642,-0l-0,-15.748c-0,-2.271 -0.85,-4.209 -2.506,-5.865c-1.655,-1.655 -3.547,-2.459 -5.769,-2.459c-2.222,0 -4.209,0.804 -5.864,2.459c-1.655,1.656 -2.46,3.594 -2.46,5.865l0,15.748l-3.64,-0l-0,-15.371c-0,-3.499 1.135,-6.382 3.404,-8.701c2.269,-2.316 5.108,-3.499 8.56,-3.499c3.405,-0 6.242,1.183 8.512,3.499c2.27,2.319 3.405,5.202 3.405,8.701l-0,15.371Z" style="fill:#16639f;fill-rule:nonzero;"/><path d="M223.846,20.854c-0.52,-2.505 -1.702,-4.54 -3.546,-6.098c-1.845,-1.562 -4.066,-2.365 -6.668,-2.414c-2.601,-0.046 -4.871,0.757 -6.811,2.319c-1.938,1.558 -3.12,3.64 -3.639,6.193l20.664,0Zm2.885,6.716c-0.993,2.885 -2.695,5.202 -5.107,6.904c-2.411,1.703 -5.061,2.555 -7.992,2.601c-3.688,0.048 -6.951,-1.278 -9.79,-4.02c-2.836,-2.79 -4.303,-6.053 -4.349,-9.882c-0.094,-4.02 1.324,-7.52 4.255,-10.404c2.98,-2.932 6.432,-4.304 10.451,-4.067c3.594,0.235 6.716,1.702 9.363,4.444c2.554,2.696 3.831,5.723 3.831,9.081l0,1.938l-24.211,0c0.283,2.696 1.418,4.964 3.451,6.714c2.033,1.75 4.398,2.65 7.142,2.601c4.255,-0.046 7.282,-2.033 9.126,-5.91l3.83,0Z" style="fill:#16639f;fill-rule:nonzero;"/><path d="M239.503,36.98c-6.573,0 -9.836,-2.79 -9.836,-8.369l0,-28.611l3.64,-0l0,9.411l6.196,0l-0,3.358l-6.196,-0l0,15.227c0,4.018 2.082,6.005 6.196,6.005l-0,2.979Z" style="fill:#16639f;fill-rule:nonzero;"/><path d="M105.552,54.068c-1.083,0 -1.886,-0.583 -2.427,-1.356l0.803,-0.693c0.541,0.678 1.017,1.072 1.657,1.072c0.836,0 1.312,-0.426 1.312,-1.072c0,-0.741 -0.311,-1.166 -1.608,-1.939c-1.344,-0.772 -1.968,-1.355 -1.968,-2.584c0,-1.183 0.919,-2.05 2.231,-2.05c1.034,0 1.788,0.473 2.264,1.198l-0.837,0.678c-0.393,-0.52 -0.82,-0.898 -1.493,-0.898c-0.672,-0 -1.082,0.393 -1.082,0.992c-0,0.647 0.312,0.994 1.542,1.734c1.344,0.789 2.034,1.435 2.034,2.743c-0,1.371 -1.116,2.175 -2.428,2.175Z" style="fill:#231f20;fill-rule:nonzero;"/><path d="M114.624,49.97c-0.41,-0.22 -0.804,-0.362 -1.558,-0.362c-0.984,-0 -1.428,0.63 -1.428,1.702c0,1.103 0.427,1.812 1.247,1.812c0.705,-0 1.329,-0.362 1.739,-0.85l-0,-2.302Zm-0,3.925l-0,-0.694c-0.476,0.473 -1.099,0.867 -1.936,0.867c-1.23,0 -2.164,-0.819 -2.164,-2.711c-0,-1.86 1.098,-2.695 2.558,-2.695c0.623,-0 1.164,0.158 1.542,0.378l-0,-1.166c-0,-0.993 -0.426,-1.45 -1.329,-1.45c-0.623,-0 -1.148,0.236 -1.755,0.677l-0.508,-0.82c0.705,-0.52 1.459,-0.835 2.345,-0.835c1.46,0 2.362,0.568 2.362,2.318l-0,6.131l-1.115,-0Z" style="fill:#231f20;fill-rule:nonzero;"/><path d="M121.708,53.895l-1,-0l-2.362,-8.275l1.165,-0l1.41,5.627c0.098,0.394 0.246,1.103 0.295,1.45c0.05,-0.347 0.214,-1.056 0.312,-1.45l1.411,-5.627l1.148,-0l-2.379,8.275Z" style="fill:#231f20;fill-rule:nonzero;"/><path d="M129.073,46.439c-0.901,-0 -1.541,0.851 -1.64,2.727l3.281,0c-0.066,-1.592 -0.574,-2.727 -1.641,-2.727Zm2.707,3.689l-4.363,-0c0.082,1.781 0.64,2.947 1.706,2.947c0.689,0 1.181,-0.268 1.771,-0.93l0.673,0.694c-0.738,0.804 -1.493,1.229 -2.51,1.229c-1.492,0 -2.738,-1.356 -2.738,-4.303c-0,-2.742 1.098,-4.319 2.787,-4.319c1.755,0 2.691,1.608 2.691,4.256c-0,0.189 -0,0.3 -0.017,0.426Z" style="fill:#231f20;fill-rule:nonzero;"/><path d="M136.654,54.068c-1.083,0 -1.887,-0.583 -2.427,-1.356l0.803,-0.693c0.541,0.678 1.017,1.072 1.657,1.072c0.837,0 1.312,-0.426 1.312,-1.072c-0,-0.741 -0.312,-1.166 -1.607,-1.939c-1.345,-0.772 -1.968,-1.355 -1.968,-2.584c-0,-1.183 0.918,-2.05 2.23,-2.05c1.033,0 1.788,0.473 2.263,1.198l-0.836,0.678c-0.394,-0.52 -0.82,-0.898 -1.492,-0.898c-0.673,-0 -1.083,0.393 -1.083,0.992c-0,0.647 0.312,0.994 1.542,1.734c1.345,0.789 2.034,1.435 2.034,2.743c-0,1.371 -1.115,2.175 -2.428,2.175Z" style="fill:#231f20;fill-rule:nonzero;"/><path d="M149.383,46.424c-0.623,-0 -1.18,0.331 -1.623,0.819l0,4.997c0.426,0.504 0.984,0.851 1.689,0.851c1.082,0 1.509,-1.324 1.509,-3.389c-0,-2.222 -0.525,-3.278 -1.575,-3.278Zm0.132,7.644c-0.755,0 -1.312,-0.347 -1.755,-0.804l0,3.043l-1.116,0.63l0,-11.317l1.116,-0l0,0.708c0.443,-0.472 1.066,-0.882 1.869,-0.882c1.575,0 2.444,1.466 2.444,4.24c0,2.837 -0.95,4.382 -2.558,4.382Z" style="fill:#231f20;fill-rule:nonzero;"/><path d="M155.158,53.895l-0,-10.86l1.114,-0.631l0,11.491l-1.114,-0Z" style="fill:#231f20;fill-rule:nonzero;"/><path d="M163.408,49.97c-0.41,-0.22 -0.804,-0.362 -1.558,-0.362c-0.984,-0 -1.427,0.63 -1.427,1.702c-0,1.103 0.427,1.812 1.246,1.812c0.705,-0 1.329,-0.362 1.739,-0.85l-0,-2.302Zm-0,3.925l-0,-0.694c-0.476,0.473 -1.099,0.867 -1.936,0.867c-1.23,0 -2.165,-0.819 -2.165,-2.711c0,-1.86 1.1,-2.695 2.559,-2.695c0.624,-0 1.165,0.158 1.542,0.378l-0,-1.166c-0,-0.993 -0.426,-1.45 -1.329,-1.45c-0.623,-0 -1.148,0.236 -1.755,0.677l-0.508,-0.82c0.705,-0.52 1.46,-0.835 2.346,-0.835c1.459,0 2.361,0.568 2.361,2.318l-0,6.131l-1.115,-0Z" style="fill:#231f20;fill-rule:nonzero;"/><path d="M171.905,53.895l-0,-5.549c-0,-1.355 -0.427,-1.922 -1.394,-1.922c-0.689,-0 -1.214,0.457 -1.575,0.961l0,6.51l-1.115,-0l-0,-8.275l1.115,-0l0,0.693c0.378,-0.457 0.984,-0.867 1.853,-0.867c1.46,0 2.248,0.93 2.248,2.775l-0,5.674l-1.132,-0Z" style="fill:#16639f;fill-rule:nonzero;"/><path d="M178.729,46.439c-0.902,-0 -1.542,0.851 -1.641,2.727l3.281,0c-0.065,-1.592 -0.574,-2.727 -1.64,-2.727Zm2.707,3.689l-4.364,-0c0.082,1.781 0.641,2.947 1.706,2.947c0.689,0 1.181,-0.268 1.771,-0.93l0.673,0.694c-0.738,0.804 -1.493,1.229 -2.509,1.229c-1.493,0 -2.739,-1.356 -2.739,-4.303c-0,-2.742 1.098,-4.319 2.788,-4.319c1.754,0 2.69,1.608 2.69,4.256c-0,0.189 -0,0.3 -0.016,0.426Z" style="fill:#16639f;fill-rule:nonzero;"/><path d="M187.359,53.832c-0.378,0.157 -0.771,0.236 -1.28,0.236c-0.983,0 -1.427,-0.583 -1.427,-1.749l0,-5.785l-0.886,0l0,-0.914l0.886,-0l0,-2.585l1.099,-0.631l0,3.216l1.657,-0l-0,0.914l-1.657,0l0,5.674c0,0.599 0.214,0.851 0.657,0.851c0.393,0 0.671,-0.063 1.049,-0.22l-0.098,0.993Z" style="fill:#16639f;fill-rule:nonzero;"/><path d="M197.414,46.439c-0.902,-0 -1.542,0.851 -1.64,2.727l3.28,0c-0.065,-1.592 -0.573,-2.727 -1.64,-2.727Zm2.707,3.689l-4.363,-0c0.081,1.781 0.64,2.947 1.705,2.947c0.69,0 1.181,-0.268 1.771,-0.93l0.673,0.694c-0.738,0.804 -1.493,1.229 -2.509,1.229c-1.492,0 -2.739,-1.356 -2.739,-4.303c0,-2.742 1.099,-4.319 2.788,-4.319c1.755,0 2.69,1.608 2.69,4.256c0,0.189 0,0.3 -0.016,0.426Z" style="fill:#231f20;fill-rule:nonzero;"/><path d="M207.239,53.895l0,-5.549c0,-1.355 -0.426,-1.922 -1.393,-1.922c-0.69,-0 -1.214,0.457 -1.575,0.961l-0,6.51l-1.116,-0l-0,-8.275l1.116,-0l-0,0.693c0.377,-0.457 0.983,-0.867 1.853,-0.867c1.46,0 2.247,0.93 2.247,2.775l0,5.674l-1.132,-0Z" style="fill:#231f20;fill-rule:nonzero;"/><path d="M214.063,46.439c-0.901,-0 -1.542,0.851 -1.64,2.727l3.281,0c-0.066,-1.592 -0.574,-2.727 -1.641,-2.727Zm2.707,3.689l-4.363,-0c0.082,1.781 0.64,2.947 1.705,2.947c0.69,0 1.182,-0.268 1.772,-0.93l0.672,0.694c-0.738,0.804 -1.492,1.229 -2.509,1.229c-1.492,0 -2.738,-1.356 -2.738,-4.303c-0,-2.742 1.098,-4.319 2.787,-4.319c1.755,0 2.691,1.608 2.691,4.256c-0,0.189 -0,0.3 -0.017,0.426Z" style="fill:#231f20;fill-rule:nonzero;"/><path d="M223.315,46.739c-0.312,-0.174 -0.59,-0.252 -1.033,-0.252c-0.542,-0 -1.05,0.425 -1.361,0.929l-0,6.479l-1.116,-0l0,-8.275l1.116,-0l-0,0.708c0.343,-0.488 0.951,-0.882 1.656,-0.882c0.509,0 0.803,0.064 1.05,0.174l-0.312,1.119Z" style="fill:#231f20;fill-rule:nonzero;"/><path d="M229.96,47.275c-0.427,-0.505 -1,-0.851 -1.69,-0.851c-1.081,-0 -1.508,1.323 -1.508,3.389c0,2.222 0.525,3.278 1.574,3.278c0.624,0 1.165,-0.331 1.624,-0.819l0,-4.997Zm-2.345,9.662l-0.345,-0.851c2.149,-0.284 2.69,-0.993 2.69,-2.554l0,-0.346c-0.459,0.473 -1.082,0.882 -1.886,0.882c-1.575,0 -2.427,-1.466 -2.427,-4.24c-0,-2.837 0.934,-4.382 2.542,-4.382c0.771,0 1.312,0.347 1.771,0.804l0,-0.63l1.116,-0l-0,7.518c-0,2.349 -0.853,3.436 -3.461,3.799Z" style="fill:#231f20;fill-rule:nonzero;"/><path d="M236.407,56.811l-1.115,-0l0.902,-2.822l-2.363,-8.369l1.182,-0l1.345,5.39c0.099,0.378 0.344,1.387 0.393,1.719c0.066,-0.332 0.279,-1.324 0.377,-1.719l1.329,-5.39l1.181,-0l-3.231,11.191Z" style="fill:#231f20;fill-rule:nonzero;"/><path d="M132.641,88.675c-0,2.04 -1.671,3.71 -3.711,3.71l-22.007,0c-2.04,0 -3.71,-1.67 -3.71,-3.71l0,-22.005c0,-2.041 1.67,-3.711 3.71,-3.711l22.007,0c2.04,0 3.711,1.67 3.711,3.711l-0,22.005Z" style="fill:#83c557;fill-rule:nonzero;"/><path d="M168.258,88.675c0,2.04 -1.669,3.71 -3.71,3.71l-22.007,0c-2.041,0 -3.711,-1.67 -3.711,-3.71l0,-22.005c0,-2.041 1.67,-3.711 3.711,-3.711l22.007,0c2.041,0 3.71,1.67 3.71,3.711l0,22.005Z" style="fill:#0b5d98;fill-rule:nonzero;"/><path d="M203.876,88.675c-0,2.04 -1.67,3.71 -3.71,3.71l-22.007,0c-2.041,0 -3.711,-1.67 -3.711,-3.71l-0,-22.005c-0,-2.041 1.67,-3.711 3.711,-3.711l22.007,0c2.04,0 3.71,1.67 3.71,3.711l-0,22.005Z" style="fill:#83c557;fill-rule:nonzero;"/><path d="M239.494,88.675c-0,2.041 -1.67,3.71 -3.711,3.71l-22.006,0c-2.041,0 -3.711,-1.669 -3.711,-3.71l0,-22.005c0,-2.041 1.67,-3.711 3.711,-3.711l22.006,0c2.041,0 3.711,1.67 3.711,3.711l-0,22.005Z" style="fill:#0b5d98;fill-rule:nonzero;"/><path d="M107.315,72.942c0.002,-0.005 1.6,-3.991 9.8,-1.003c2.63,0.957 4.858,2.035 6.636,2.418c3.777,0.818 5.618,0.163 5.618,0.163c0,-0 -1.368,2.893 -7.015,1.403c-5.649,-1.493 -9.529,-4.935 -15.037,-2.986" style="fill:none;stroke:#fff;stroke-width:0.12px;"/><path d="M107.315,75.616c0.002,-0.006 1.6,-3.987 9.8,-1.001c2.63,0.955 4.858,2.032 6.636,2.418c3.777,0.817 5.618,0.161 5.618,0.161c0,-0 -1.368,2.895 -7.015,1.404c-5.649,-1.493 -9.529,-4.934 -15.037,-2.988" style="fill:#fff;fill-rule:nonzero;"/><path d="M107.315,75.616c0.002,-0.006 1.6,-3.987 9.8,-1.001c2.63,0.955 4.858,2.032 6.636,2.418c3.777,0.817 5.618,0.161 5.618,0.161c0,-0 -1.368,2.895 -7.015,1.404c-5.649,-1.493 -9.529,-4.934 -15.037,-2.988" style="fill:none;stroke:#fff;stroke-width:0.12px;"/><path d="M107.315,78.377c0.002,-0.005 1.6,-3.988 9.8,-1.003c2.63,0.958 4.858,2.035 6.636,2.42c3.777,0.815 5.618,0.161 5.618,0.161c0,0 -1.368,2.896 -7.015,1.405c-5.649,-1.493 -9.529,-4.936 -15.037,-2.988" style="fill:none;stroke:#fff;stroke-width:0.12px;"/><path d="M107.315,72.942c0.002,-0.005 1.6,-3.991 9.8,-1.003c2.63,0.957 4.858,2.035 6.636,2.418c3.777,0.818 5.618,0.163 5.618,0.163c0,-0 -1.368,2.893 -7.015,1.403c-5.649,-1.493 -9.529,-4.935 -15.037,-2.986" style="fill:#fff;fill-rule:nonzero;"/><path d="M107.315,78.377c0.002,-0.005 1.6,-3.988 9.8,-1.003c2.63,0.958 4.858,2.035 6.636,2.42c3.777,0.815 5.618,0.161 5.618,0.161c0,0 -1.368,2.896 -7.015,1.405c-5.649,-1.493 -9.529,-4.936 -15.037,-2.988" style="fill:#fff;fill-rule:nonzero;"/><path d="M107.315,81.139c0.002,-0.007 1.6,-3.988 9.8,-1.001c2.63,0.956 4.858,2.033 6.636,2.418c3.777,0.816 5.618,0.162 5.618,0.162c0,-0 -1.368,2.895 -7.015,1.402c-5.649,-1.493 -9.529,-4.934 -15.037,-2.988" style="fill:#fff;fill-rule:nonzero;"/><path d="M107.315,81.139c0.002,-0.007 1.6,-3.988 9.8,-1.001c2.63,0.956 4.858,2.033 6.636,2.418c3.777,0.816 5.618,0.162 5.618,0.162c0,-0 -1.368,2.895 -7.015,1.402c-5.649,-1.493 -9.529,-4.934 -15.037,-2.988" style="fill:none;stroke:#fff;stroke-width:0.12px;"/><path d="M146.886,76.989c0.371,0 0.676,0.305 0.676,0.676l-0,0.046c-0,0.371 -0.305,0.675 -0.676,0.675l-5.046,0c-0.371,0 -0.675,-0.304 -0.675,-0.675l-0,-0.046c-0,-0.371 0.304,-0.676 0.675,-0.676l5.046,0Z" style="fill:#fff;fill-rule:nonzero;"/><path d="M165.76,76.989c0.371,0 0.675,0.305 0.675,0.676l0,0.046c0,0.371 -0.304,0.675 -0.675,0.675l-5.048,0c-0.371,0 -0.676,-0.304 -0.676,-0.675l0,-0.046c0,-0.371 0.305,-0.676 0.676,-0.676l5.048,0Z" style="fill:#fff;fill-rule:nonzero;"/><path d="M154.496,70.774c0,0.372 -0.304,0.676 -0.675,0.676l-0.044,-0c-0.372,-0 -0.676,-0.304 -0.676,-0.676l0,-5.045c0,-0.372 0.304,-0.676 0.676,-0.676l0.044,0c0.371,0 0.675,0.304 0.675,0.676l0,5.045Z" style="fill:#fff;fill-rule:nonzero;"/><path d="M154.496,89.648c0,0.371 -0.304,0.675 -0.675,0.675l-0.044,0c-0.372,0 -0.676,-0.304 -0.676,-0.675l0,-5.046c0,-0.371 0.304,-0.676 0.676,-0.676l0.044,0c0.371,0 0.675,0.305 0.675,0.676l0,5.046Z" style="fill:#fff;fill-rule:nonzero;"/><path d="M147.46,80.534c0.323,-0.185 0.738,-0.074 0.923,0.249l0.023,0.038c0.185,0.322 0.073,0.738 -0.249,0.923l-4.372,2.518c-0.322,0.186 -0.737,0.075 -0.923,-0.248l-0.022,-0.039c-0.185,-0.322 -0.074,-0.737 0.248,-0.922l4.372,-2.519Z" style="fill:#fff;fill-rule:nonzero;"/><path d="M163.815,71.113c0.322,-0.185 0.736,-0.073 0.922,0.249l0.022,0.039c0.185,0.322 0.073,0.737 -0.249,0.923l-4.371,2.518c-0.322,0.185 -0.738,0.074 -0.923,-0.248l-0.023,-0.039c-0.186,-0.322 -0.075,-0.738 0.247,-0.923l4.375,-2.519Z" style="fill:#fff;fill-rule:nonzero;"/><path d="M149.748,83.335c0.185,-0.322 0.6,-0.435 0.922,-0.25l0.04,0.023c0.322,0.185 0.435,0.599 0.249,0.922l-2.516,4.374c-0.185,0.322 -0.6,0.434 -0.922,0.249l-0.038,-0.022c-0.323,-0.186 -0.435,-0.601 -0.249,-0.923l2.514,-4.373Z" style="fill:#fff;fill-rule:nonzero;"/><path d="M159.156,66.972c0.185,-0.322 0.6,-0.434 0.922,-0.249l0.037,0.021c0.323,0.186 0.435,0.601 0.249,0.924l-2.514,4.373c-0.185,0.322 -0.6,0.435 -0.923,0.25l-0.038,-0.023c-0.322,-0.185 -0.434,-0.6 -0.248,-0.922l2.515,-4.374Z" style="fill:#fff;fill-rule:nonzero;"/><path d="M150.96,71.345c0.185,0.322 0.072,0.737 -0.25,0.923l-0.04,0.023c-0.322,0.185 -0.737,0.072 -0.922,-0.25l-2.515,-4.375c-0.185,-0.322 -0.073,-0.737 0.25,-0.922l0.04,-0.023c0.321,-0.184 0.737,-0.072 0.922,0.25l2.515,4.374Z" style="fill:#fff;fill-rule:nonzero;"/><path d="M160.363,87.71c0.185,0.322 0.073,0.737 -0.25,0.923l-0.037,0.021c-0.322,0.185 -0.736,0.072 -0.922,-0.25l-2.516,-4.374c-0.185,-0.323 -0.073,-0.737 0.249,-0.922l0.04,-0.023c0.322,-0.185 0.738,-0.072 0.922,0.25l2.514,4.375Z" style="fill:#fff;fill-rule:nonzero;"/><path d="M148.122,73.682c0.324,0.183 0.439,0.596 0.256,0.92l-0.023,0.039c-0.182,0.324 -0.597,0.439 -0.921,0.256l-4.395,-2.479c-0.323,-0.183 -0.438,-0.597 -0.256,-0.92l0.023,-0.04c0.183,-0.323 0.597,-0.439 0.921,-0.256l4.395,2.48Z" style="fill:#fff;fill-rule:nonzero;"/><path d="M164.559,82.959c0.323,0.182 0.438,0.595 0.255,0.92l-0.022,0.039c-0.184,0.323 -0.598,0.439 -0.922,0.256l-4.392,-2.48c-0.324,-0.183 -0.439,-0.597 -0.257,-0.92l0.022,-0.038c0.182,-0.324 0.597,-0.439 0.92,-0.257l4.396,2.48Z" style="fill:#fff;fill-rule:nonzero;"/><path d="M156.957,77.688c0,1.744 -1.413,3.159 -3.157,3.159c-1.744,-0 -3.159,-1.415 -3.159,-3.159c-0,-1.744 1.415,-3.159 3.159,-3.159c1.744,0 3.157,1.415 3.157,3.159Z" style="fill:#fff;fill-rule:nonzero;"/><path d="M192.95,76.835c0,5.025 -3.61,9.097 -3.61,9.097c0,0 -3.61,-4.072 -3.61,-9.097c0,-5.021 3.61,-9.095 3.61,-9.095c0,0 3.61,4.074 3.61,9.095Z" style="fill:#fff;fill-rule:nonzero;"/><path d="M192.95,76.998c0,5.026 -3.61,9.097 -3.61,9.097c0,-0 -3.61,-4.071 -3.61,-9.097c0,-5.021 3.61,-9.094 3.61,-9.094c0,-0 3.61,4.073 3.61,9.094Z" style="fill:none;stroke:#83c557;stroke-width:0.43px;"/><path d="M194.483,80.522c-1.358,3.592 -5.041,5.529 -5.041,5.529c-0,-0 -1.485,-3.888 -0.125,-7.48c1.358,-3.592 5.039,-5.529 5.039,-5.529c0,-0 1.483,3.888 0.127,7.48Z" style="fill:#fff;fill-rule:nonzero;"/><path d="M194.483,80.685c-1.358,3.592 -5.041,5.529 -5.041,5.529c-0,0 -1.485,-3.888 -0.125,-7.48c1.358,-3.592 5.039,-5.529 5.039,-5.529c0,-0 1.483,3.888 0.127,7.48Z" style="fill:none;stroke:#83c557;stroke-width:0.43px;"/><path d="M189.151,78.754c1.581,3.497 0.346,7.471 0.346,7.471c0,-0 -3.797,-1.703 -5.377,-5.201c-1.582,-3.502 -0.348,-7.475 -0.348,-7.475c-0,-0 3.797,1.702 5.379,5.205Z" style="fill:#fff;fill-rule:nonzero;"/><path d="M189.151,78.754c1.581,3.497 0.346,7.471 0.346,7.471c0,-0 -3.797,-1.703 -5.377,-5.201c-1.582,-3.502 -0.348,-7.475 -0.348,-7.475c-0,-0 3.797,1.702 5.379,5.205Z" style="fill:none;stroke:#83c557;stroke-width:0.43px;"/><path d="M235.995,82.636c-2.871,-2.122 -5.956,-2.817 -9.201,-1.611c-3.757,1.399 -6.973,4.387 -10.917,4.84" style="fill:none;stroke:#fff;stroke-width:0.52px;stroke-linecap:round;"/><path d="M235.438,79.118c-2.873,-2.123 -5.956,-2.818 -9.201,-1.611c-3.757,1.4 -6.973,4.387 -10.916,4.84" style="fill:none;stroke:#fff;stroke-width:0.52px;stroke-linecap:round;"/><path d="M235.588,75.599c-2.872,-2.121 -5.956,-2.818 -9.2,-1.61c-3.758,1.398 -6.974,4.387 -10.917,4.839" style="fill:none;stroke:#fff;stroke-width:0.52px;stroke-linecap:round;"/><path d="M235.03,72.08c-2.87,-2.121 -5.955,-2.818 -9.198,-1.61c-3.759,1.399 -6.974,4.386 -10.918,4.839" style="fill:none;stroke:#fff;stroke-width:0.52px;stroke-linecap:round;"/></svg>