<svg xmlns="http://www.w3.org/2000/svg" width="320" height="60" viewBox="0 0 320 60"><title>goldbecksolar_logo</title><g id="Box-Size"><rect width="320" height="60" style="fill:none"/></g><g id="Ebene_1" data-name="Ebene 1"><path d="M18.34,37.3a11.73,11.73,0,0,0,5.34-1.06V21.73H18.39c-3.84,0-3.94,4.37-3.94,7.3,0,4.86.05,8.27,3.89,8.27M17.05,16.59a69.45,69.45,0,0,1,11.57,1,2.2,2.2,0,0,1,1.79,2.16V43.25c0,6.53-3.88,10.58-10,10.19l-9-.56a1,1,0,0,1-.9-1V48.77a1,1,0,0,1,1-1h8.21c2.55,0,4.09-1.49,4.09-4.56V40.76a12.32,12.32,0,0,1-6.63,1.82c-7.36,0-9.33-4.85-9.33-13.35S11,16.59,17.05,16.59" style="fill:#00366c"/><path d="M46,37.35c3.8,0,4.91-.48,4.91-7.21,0-7.16-.87-8-4.91-8s-4.9.82-4.9,8c0,6.58,1.35,7.21,4.9,7.21m0-20.57c8.8,0,11.63,3.22,11.63,13.36C57.65,39.6,55,42.78,46,42.78S34.39,39.27,34.39,30.14c0-10.43,3-13.36,11.63-13.36" style="fill:#00366c"/><path d="M63.3,6.54h3.51a1.61,1.61,0,0,1,1.61,1.61V32.4c0,3.7.86,4.51,2.21,5,0,0,1.59.56,2.54.85a.94.94,0,0,1,.68.91v2.43a1,1,0,0,1-1,1H68.27c-4.18,0-6.58-2.31-6.58-9.09V8.15A1.61,1.61,0,0,1,63.3,6.54" style="fill:#00366c"/><path d="M86.06,37.88h5.28V23.07a12.47,12.47,0,0,0-5.33-1c-3.85,0-3.89,3.37-3.89,8.22,0,2.93.09,7.6,3.94,7.6M84.71,16.73a12.47,12.47,0,0,1,6.63,1.87V8.15A1.61,1.61,0,0,1,93,6.54h3.51a1.61,1.61,0,0,1,1.61,1.61V39.71a2.54,2.54,0,0,1-2,2.48A61.73,61.73,0,0,1,84.71,43c-6,0-9.32-4-9.32-12.93,0-8.46,2-13.36,9.32-13.36" style="fill:#00366c"/><path d="M114.46,37.87c3.84,0,3.94-4.66,3.94-7.59,0-4.85-.05-8.22-3.89-8.22a12.38,12.38,0,0,0-5.34,1v14.8ZM104.05,6.59h3.51a1.61,1.61,0,0,1,1.61,1.61V18.6a12.3,12.3,0,0,1,6.58-1.87c7.36,0,9.38,4.9,9.38,13.36,0,8.94-3.37,12.93-9.38,12.93a61,61,0,0,1-11.34-.83,2.55,2.55,0,0,1-2-2.48V8.2a1.61,1.61,0,0,1,1.61-1.61" style="fill:#00366c"/><path d="M141.85,27.69c1.39,0,2.11-.68,2.11-1.93,0-3.21-.48-3.79-3.7-3.79-3.55,0-4.85.19-4.8,5.72Zm-2-10.86c7.4,0,10.81.81,10.81,9.27,0,4.57-2.5,6.44-7.11,6.44h-8.12c0,4.57,1.73,4.85,5.38,4.85a54,54,0,0,0,8.28-.36,1,1,0,0,1,1.09.94v2.78a1,1,0,0,1-.69.92c-3.58,1.11-8.64,1.11-12.38,1.11-6.49,0-8.41-3.75-8.41-13.12,0-11,3.08-12.83,11.15-12.83" style="fill:#00366c"/><path d="M162.37,16.78a41.17,41.17,0,0,1,11,1.33.93.93,0,0,1,.68.91v2.42a1,1,0,0,1-1,.95c-1.58-.08-4.78-.23-7.84-.23s-4.56.19-4.56,7.74c0,6.53,1.1,7.45,4.56,7.45,3.17,0,6.52-.23,8.15-.35a1,1,0,0,1,1,1v2.59a.92.92,0,0,1-.54.86c-3.58,1.63-7.72,1.33-11.52,1.38-4.76,0-8.41-2.5-8.41-13s3.51-13,8.41-13" style="fill:#00366c"/><path d="M179.69,6.59h3.51a1.61,1.61,0,0,1,1.61,1.61V25.57l6.78-7.63a2.61,2.61,0,0,1,2-.92h6.15a.54.54,0,0,1,.41.9l-8,9.34a1.49,1.49,0,0,0-.11,1.81l8.37,12.62a.55.55,0,0,1-.46.85h-5.6a2.61,2.61,0,0,1-2.17-1.18l-7.32-10.65V40.93a1.61,1.61,0,0,1-1.61,1.61h-3.51a1.61,1.61,0,0,1-1.61-1.61V8.2a1.61,1.61,0,0,1,1.61-1.61" style="fill:#00366c"/><path d="M203.6,23.65c0-3.94,1.68-6.87,6.63-6.87,4.47,0,10.49.12,13,1a1,1,0,0,1,.63.9v2.66a1,1,0,0,1-.95.95H212.3c-1.73,0-2,.58-2,1.78v1.16c0,1.58.86,1.63,2,1.63h6c4.86,0,6.78,2.88,6.78,6.63v2.6c0,5.24-3.17,6.68-6.25,6.68-4.42,0-11.11-.2-13.61-1.11a.94.94,0,0,1-.61-.89V38.16a1,1,0,0,1,1-1h11.11a1.49,1.49,0,0,0,1.68-1.63v-1.2c0-1.06-.29-1.64-1.68-1.64h-6c-4.52,0-7.16-1.92-7.16-6.87Z" style="fill:#fab900"/><path d="M240,37.35c3.8,0,4.9-.48,4.9-7.21,0-7.16-.86-8-4.9-8s-4.9.82-4.9,8c0,6.58,1.34,7.21,4.9,7.21m0-20.57c8.79,0,11.63,3.22,11.63,13.36,0,9.46-2.69,12.64-11.63,12.64S228.4,39.27,228.4,30.14c0-10.43,3-13.36,11.63-13.36" style="fill:#fab900"/><path d="M257.31,6.54h3.5a1.61,1.61,0,0,1,1.61,1.61V32.4c0,3.7.87,4.51,2.21,5,0,0,1.59.56,2.55.85a1,1,0,0,1,.67.91v2.43a1,1,0,0,1-1,1h-4.62c-4.18,0-6.58-2.31-6.58-9.09V8.15a1.61,1.61,0,0,1,1.61-1.61" style="fill:#fab900"/><path d="M279.34,37.39H283c2.16,0,2.64-.81,2.64-2.69V31.15l-6.34.43c-1.73.14-2.21.72-2.21,2.11v1.49c0,1.49.29,2.21,2.26,2.21m-9-3.7c0-3.7,1.06-6.63,7.64-6.63h7.64c0-4.56-1.05-5.09-5-5.09-2.47,0-4.94.16-8.67.48a1,1,0,0,1-1-.95V19.12a1,1,0,0,1,.68-.91,35.56,35.56,0,0,1,11.81-1.48c7.6,0,9,4.47,9,13.22v4.56c0,5.58-2.35,8-7.45,8H278c-4.13,0-7.64-1.4-7.64-6.83Z" style="fill:#fab900"/><path d="M298.45,18.38c3.4-1.62,6.93-1.77,12.94-1.29a1,1,0,0,1,.89,1v2.63a1,1,0,0,1-.95.95c-3.65.07-5.49.47-7.22,1.45a1.83,1.83,0,0,0-1,1.54V40.93a1.61,1.61,0,0,1-1.61,1.61H298a1.61,1.61,0,0,1-1.61-1.61V21.66a3.62,3.62,0,0,1,2.1-3.28" style="fill:#fab900"/></g></svg>